<svg viewBox="358.72 290.64 25.56 31.14" xmlns="http://www.w3.org/2000/svg">
<path
fillRule="evenodd"
clipRule="evenodd"
d="M382.64,316.98c1.49-1.48,1.64-4.94,1.64-7.06,0,0-1.24,2.37-3.9,3.96-2.07,1.25-5.76,2.99-7.94,4.08-2.46,1.22-6.29,3.82-6.29,3.82,0,0,5.32-.03,7.9-.02,1.52,0,2.68-.54,3.98-1.26,1.68-.94,3.24-2.17,4.6-3.52Z"
/>
<path
fillRule="evenodd"
clipRule="evenodd"
d="M383.97,300.12s-1.44,2.04-4.78,4.11c-4.53,2.8-9.68,4.63-14.47,7.03-3.88,1.95-4.91,5.57-4.91,5.57,0,0,4.5,3.93,4.52,3.89.6-1.46,1.49-2.85,2.65-4.02,1.19-1.19,2.67-2.13,4.12-3.04,2.21-1.39,4.46-2.76,6.54-4.3,3.97-2.96,5.77-3.45,6.11-7.05.07-.72.24-1.34.22-2.19Z"
/>
<path
fillRule="evenodd"
clipRule="evenodd"
d="M382.14,291.5s-.88.56-1.07.67c-.9.54-4.78,2.59-5.76,3.01-3.69,1.61-5.11,1.98-8.69,3.78-2.98,1.5-6.1,3.26-7.51,6.16-.06.13-.53,1.41-.53,1.41l4.52,3.89s.52-1.09.57-1.18c.5-.93,1.11-1.82,1.84-2.61,3.01-3.27,7.6-4.99,11.25-7.62,2.68-1.93,3.82-3.3,4.24-3.78.8-.9,1.14-3.74,1.14-3.74Z"
/>
<path
fillRule="evenodd"
clipRule="evenodd"
d="M373.47,290.64s-4.05.05-5.68.19c-1.64.14-2.96.21-4.37,1.06-1.87,1.13-3.28,2.56-4.7,4.1l3.69,3.18s2.39-2.76,2.57-2.95c2.34-2.44,4.07-3.56,8.5-5.58Z"
/>
    </svg>
